<svg xmlns="http://www.w3.org/2000/svg" width="510" height="511" fill="none" viewBox="0 0 510 511" id="menu"><path fill="#000" fill-rule="evenodd" d="M171 181C171 186.523 175.477 191 181 191 186.523 191 191 186.523 191 181 191 175.477 186.523 171 181 171 175.477 171 171 175.477 171 181zM181 156C167.193 156 156 167.193 156 181 156 194.807 167.193 206 181 206 194.807 206 206 194.807 206 181 206 167.193 194.807 156 181 156zM171 256C171 261.523 175.477 266 181 266 186.523 266 191 261.523 191 256 191 250.477 186.523 246 181 246 175.477 246 171 250.477 171 256zM181 231C167.193 231 156 242.193 156 256 156 269.807 167.193 281 181 281 194.807 281 206 269.807 206 256 206 242.193 194.807 231 181 231zM171 331C171 336.523 175.477 341 181 341 186.523 341 191 336.523 191 331 191 325.477 186.523 321 181 321 175.477 321 171 325.477 171 331zM181 306C167.193 306 156 317.193 156 331 156 344.807 167.193 356 181 356 194.807 356 206 344.807 206 331 206 317.193 194.807 306 181 306zM246 181C246 186.523 250.477 191 256 191 261.523 191 266 186.523 266 181 266 175.477 261.523 171 256 171 250.477 171 246 175.477 246 181zM256 156C242.193 156 231 167.193 231 181 231 194.807 242.193 206 256 206 269.807 206 281 194.807 281 181 281 167.193 269.807 156 256 156zM246 256C246 261.523 250.477 266 256 266 261.523 266 266 261.523 266 256 266 250.477 261.523 246 256 246 250.477 246 246 250.477 246 256zM256 231C242.193 231 231 242.193 231 256 231 269.807 242.193 281 256 281 269.807 281 281 269.807 281 256 281 242.193 269.807 231 256 231zM246 331C246 336.523 250.477 341 256 341 261.523 341 266 336.523 266 331 266 325.477 261.523 321 256 321 250.477 321 246 325.477 246 331zM256 306C242.193 306 231 317.193 231 331 231 344.807 242.193 356 256 356 269.807 356 281 344.807 281 331 281 317.193 269.807 306 256 306zM321 181C321 186.523 325.477 191 331 191 336.523 191 341 186.523 341 181 341 175.477 336.523 171 331 171 325.477 171 321 175.477 321 181zM331 156C317.193 156 306 167.193 306 181 306 194.807 317.193 206 331 206 344.807 206 356 194.807 356 181 356 167.193 344.807 156 331 156zM321 256C321 261.523 325.477 266 331 266 336.523 266 341 261.523 341 256 341 250.477 336.523 246 331 246 325.477 246 321 250.477 321 256zM331 231C317.193 231 306 242.193 306 256 306 269.807 317.193 281 331 281 344.807 281 356 269.807 356 256 356 242.193 344.807 231 331 231zM321 331C321 336.523 325.477 341 331 341 336.523 341 341 336.523 341 331 341 325.477 336.523 321 331 321 325.477 321 321 325.477 321 331zM331 306C317.193 306 306 317.193 306 331 306 344.807 317.193 356 331 356 344.807 356 356 344.807 356 331 356 317.193 344.807 306 331 306z" clip-rule="evenodd"></path></svg>